G04 ================== begin FILE IDENTIFICATION RECORD ==================*
G04 Layout Name:  C:/USERS/USER/DESKTOP/MY_CAD/allegro/MY_CAD_1.brd*
G04 Film Name:    SilkT*
G04 File Format:  Gerber RS274X*
G04 File Origin:  Cadence Allegro 17.2-P019*
G04 Origin Date:  Tue Jul 30 15:55:38 2019*
G04 *
G04 Layer:  REF DES/SILKSCREEN_TOP*
G04 Layer:  PACKAGE GEOMETRY/SILKSCREEN_TOP*
G04 Layer:  BOARD GEOMETRY/SILKSCREEN_TOP*
G04 *
G04 Offset:    (0.000 0.000)*
G04 Mirror:    No*
G04 Mode:      Positive*
G04 Rotation:  0*
G04 FullContactRelief:  No*
G04 UndefLineWidth:     0.200*
G04 ================== end FILE IDENTIFICATION RECORD ====================*
%FSLAX25Y25*MOIN*%
%IR0*IPPOS*OFA0.00000B0.00000*MIA0B0*SFA1.00000B1.00000*%
%ADD10C,.007992*%
%ADD11C,.007874*%
G75*
%LPD*%
G75*
G54D10*
G01X167579Y117579D02*
X182421D01*
G01D02*
X184689Y120988D01*
G01D02*
X185488Y125000D01*
G01D02*
X184689Y129012D01*
G01D02*
X182421Y132421D01*
G01D02*
X179012Y134689D01*
G01X170988D02*
X167579Y132421D01*
G01D02*
X165311Y129012D01*
G01D02*
X164512Y125000D01*
G01D02*
X165311Y120988D01*
G01D02*
X167579Y117579D01*
G01D02*
X167661Y117500D01*
G01X179012Y134689D02*
X175000Y135488D01*
G01D02*
X170988Y134689D01*
G54D11*
G01X14685Y123110D02*
X24685D01*
Y83110D01*
X14685D01*
Y123110D01*
G01X26906Y125075D02*
X26406Y124760D01*
X26071Y124378D01*
X25906Y123937D01*
X26071Y123429D01*
X26406Y123047D01*
X26906Y122669D01*
X27571Y122543D01*
X30906D01*
G01X30071Y119913D02*
X30571Y119535D01*
X30823Y119091D01*
X30906Y118583D01*
X30740Y117949D01*
X30323Y117508D01*
X29823Y117382D01*
X29323Y117445D01*
X28906Y117697D01*
X28071Y118965D01*
X27488Y119535D01*
X26654Y119913D01*
X25906Y120039D01*
Y117382D01*
G01X14685Y182165D02*
X24685D01*
Y152165D01*
X14685D01*
Y182165D01*
G01X26205Y181484D02*
X25898Y181291D01*
X25689Y181063D01*
X25587Y180791D01*
X25689Y180488D01*
X25898Y180256D01*
X26205Y180028D01*
X26618Y179949D01*
X28685D01*
G01X26205Y178461D02*
X25846Y178232D01*
X25638Y177925D01*
X25587Y177579D01*
X25638Y177272D01*
X25898Y176969D01*
X26205Y176776D01*
X26516Y176736D01*
X26878Y176815D01*
X27134Y177083D01*
X27240Y177350D01*
Y177693D01*
G01Y177350D02*
X27394Y177118D01*
X27654Y176929D01*
X27961Y176850D01*
X28272Y176929D01*
X28531Y177118D01*
X28685Y177465D01*
X28634Y177811D01*
X28425Y178154D01*
G01X66205Y87677D02*
X72205D01*
X74705Y85177D01*
X79705D01*
X82205Y87677D01*
X88205D01*
Y47677D01*
X66205D01*
Y87677D01*
G01Y206181D02*
X72205D01*
X74705Y203681D01*
X79705D01*
X82205Y206181D01*
X88205D01*
Y166181D01*
X66205D01*
Y206181D01*
G01X97862Y81976D02*
Y78394D01*
X98114Y77642D01*
X98622Y77142D01*
X99252Y76976D01*
X99886Y77142D01*
X100394Y77642D01*
X100646Y78394D01*
Y81976D01*
G01X103150Y81142D02*
X103528Y81642D01*
X103972Y81894D01*
X104480Y81976D01*
X105114Y81811D01*
X105555Y81394D01*
X105681Y80894D01*
X105618Y80394D01*
X105366Y79976D01*
X104098Y79142D01*
X103528Y78559D01*
X103150Y77724D01*
X103024Y76976D01*
X105681D01*
G01X77126Y120020D02*
Y145020D01*
X97126D01*
Y120020D01*
X77126D01*
G01X74740Y151220D02*
X76323Y146220D01*
X77909Y151220D01*
G01X80157Y146220D02*
Y151220D01*
X81740D01*
X82248Y150969D01*
X82563Y150638D01*
X82689Y149969D01*
X82563Y149303D01*
X82185Y148886D01*
X81740Y148638D01*
X80157D01*
G01X81740D02*
X82689Y146220D01*
G01X86520D02*
Y151220D01*
X85760Y150220D01*
G01Y146220D02*
X87280D01*
G01X97862Y200480D02*
Y196898D01*
X98114Y196146D01*
X98622Y195646D01*
X99252Y195480D01*
X99886Y195646D01*
X100394Y196146D01*
X100646Y196898D01*
Y200480D01*
G01X105114Y195480D02*
Y200480D01*
X102768Y196898D01*
X105937D01*
G01X147500Y45000D02*
G03I-10000J0D01*
G01X131618Y208000D02*
Y204902D01*
X130657D01*
X130350Y205055D01*
X130161Y205264D01*
X130083Y205677D01*
X130161Y206091D01*
X130390Y206346D01*
X130657Y206504D01*
X131618D01*
G01X130657D02*
X130083Y208000D01*
G01X127752D02*
X127484Y207949D01*
X127177Y207795D01*
X126984Y207535D01*
X126909Y207173D01*
X126984Y206811D01*
X127217Y206504D01*
X127559Y206346D01*
X127945D01*
X128173Y206244D01*
X128366Y205984D01*
X128441Y205626D01*
X128327Y205264D01*
X128059Y205004D01*
X127752Y204902D01*
X127445Y205004D01*
X127177Y205264D01*
X127063Y205626D01*
X127138Y205984D01*
X127331Y206244D01*
X127559Y206346D01*
X127945D01*
X128287Y206504D01*
X128520Y206811D01*
X128594Y207173D01*
X128520Y207535D01*
X128327Y207795D01*
X128020Y207949D01*
X127752Y208000D01*
G01X142500Y226500D02*
Y198500D01*
X132500D01*
Y226500D01*
X142500D01*
G01X174000Y67500D02*
X146000D01*
Y77500D01*
X174000D01*
Y67500D01*
G01X151083Y66157D02*
X151335Y66535D01*
X151500Y66980D01*
Y67484D01*
X151248Y68055D01*
X150835Y68500D01*
X150335Y68815D01*
X149500Y69071D01*
X148748Y69134D01*
X148000Y69004D01*
X147500Y68815D01*
X147000Y68437D01*
X146665Y67992D01*
X146500Y67551D01*
Y67106D01*
X146665Y66661D01*
X146917Y66283D01*
X147248Y65965D01*
G01X146500Y62453D02*
X151500D01*
X150500Y63213D01*
G01X146500D02*
Y61693D01*
G01X155500Y78382D02*
X152402D01*
Y79343D01*
X152555Y79650D01*
X152764Y79839D01*
X153177Y79917D01*
X153591Y79839D01*
X153846Y79610D01*
X154004Y79343D01*
Y78382D01*
G01Y79343D02*
X155500Y79917D01*
G01Y82248D02*
X152402D01*
X153020Y81787D01*
G01X155500D02*
Y82709D01*
G01X146000Y97500D02*
X174000D01*
Y87500D01*
X146000D01*
Y97500D01*
G01X162000Y139118D02*
X165098D01*
Y138157D01*
X164945Y137850D01*
X164736Y137661D01*
X164323Y137583D01*
X163909Y137661D01*
X163654Y137890D01*
X163496Y138157D01*
Y139118D01*
G01Y138157D02*
X162000Y137583D01*
G01X162465Y136094D02*
X162205Y135866D01*
X162051Y135598D01*
X162000Y135252D01*
X162102Y134906D01*
X162311Y134638D01*
X162673Y134449D01*
X163083Y134409D01*
X163496Y134484D01*
X163756Y134677D01*
X163961Y134945D01*
X164016Y135213D01*
X163961Y135480D01*
X163756Y135827D01*
X165098Y135713D01*
Y134677D01*
G01X143500Y150000D02*
X171500D01*
Y140000D01*
X143500D01*
Y150000D01*
G01X168268Y188858D02*
G03I-10000J0D01*
G01X137110Y202441D02*
X136732Y202693D01*
X136287Y202858D01*
X135783D01*
X135213Y202606D01*
X134768Y202193D01*
X134453Y201693D01*
X134197Y200858D01*
X134134Y200106D01*
X134264Y199358D01*
X134453Y198858D01*
X134831Y198358D01*
X135276Y198024D01*
X135717Y197858D01*
X136161D01*
X136606Y198024D01*
X136984Y198276D01*
X137303Y198606D01*
G01X139425Y198858D02*
X139803Y198276D01*
X140311Y197941D01*
X140882Y197858D01*
X141386Y197941D01*
X141894Y198358D01*
X142209Y198858D01*
X142272Y199358D01*
X142146Y199941D01*
X141705Y200358D01*
X141260Y200524D01*
X140689D01*
G01X141260D02*
X141642Y200776D01*
X141957Y201193D01*
X142083Y201693D01*
X141957Y202193D01*
X141642Y202606D01*
X141071Y202858D01*
X140500Y202776D01*
X139929Y202441D01*
G01X190000Y45000D02*
G03I-10000J0D01*
G01X164500Y86618D02*
X167598D01*
Y85657D01*
X167445Y85350D01*
X167236Y85161D01*
X166823Y85083D01*
X166409Y85161D01*
X166154Y85390D01*
X165996Y85657D01*
Y86618D01*
G01Y85657D02*
X164500Y85083D01*
G01X167083Y83480D02*
X167394Y83252D01*
X167547Y82980D01*
X167598Y82677D01*
X167496Y82291D01*
X167236Y82024D01*
X166925Y81949D01*
X166618Y81984D01*
X166358Y82138D01*
X165843Y82906D01*
X165480Y83252D01*
X164965Y83480D01*
X164500Y83555D01*
Y81949D01*
G01X166909Y108598D02*
X166161Y108724D01*
X165512Y109224D01*
X164949Y109972D01*
X164575Y110846D01*
X164390Y111846D01*
Y112850D01*
X164575Y113850D01*
X164949Y114724D01*
X165512Y115472D01*
X166161Y115972D01*
X166909Y116098D01*
X167657Y115972D01*
X168307Y115472D01*
X168870Y114724D01*
X169244Y113850D01*
X169429Y112850D01*
Y111846D01*
X169244Y110846D01*
X168870Y109972D01*
X168307Y109224D01*
X167657Y108724D01*
X166909Y108598D01*
G01X167657Y110598D02*
X168776Y108598D01*
G01X174409D02*
Y116098D01*
X173291Y114598D01*
G01Y108598D02*
X175528D01*
G01X185264Y252500D02*
Y268248D01*
X185894D01*
X186102Y267461D01*
X186260Y265622D01*
X186311Y263524D01*
X186260Y261425D01*
X186130Y259850D01*
X185894Y259063D01*
X185264D01*
G01X187382Y268248D02*
Y256961D01*
X187488Y254598D01*
X187697Y253024D01*
X187961Y252500D01*
X188224Y253024D01*
X188433Y254598D01*
X188539Y256961D01*
Y268248D01*
G01X189610D02*
Y252500D01*
X190657D01*
G01X191756Y254598D02*
X191965Y253287D01*
X192201Y252500D01*
X192413D01*
X192622Y253287D01*
X192780Y254598D01*
X192858Y256437D01*
X192807Y258276D01*
X192673Y259850D01*
X192437Y260898D01*
X192122Y261425D01*
X191941Y262472D01*
X191862Y264311D01*
X191913Y266150D01*
X192043Y267461D01*
X192228Y268248D01*
X192413D01*
X192594Y267724D01*
X192752Y266409D01*
G01X195004Y252500D02*
X193957D01*
Y268248D01*
X195004D01*
G01X194587Y260638D02*
X193957D01*
G01X198146Y252500D02*
Y268248D01*
X198827Y255126D01*
X199508Y268248D01*
Y252500D01*
G01X201000D02*
X200791Y252764D01*
X200606Y253811D01*
X200449Y255386D01*
X200343Y257224D01*
X200291Y259323D01*
Y261425D01*
X200343Y263524D01*
X200449Y265362D01*
X200606Y266937D01*
X200791Y267984D01*
X201000Y268248D01*
X201209Y267984D01*
X201394Y266937D01*
X201551Y265362D01*
X201657Y263524D01*
X201709Y261425D01*
Y259323D01*
X201657Y257224D01*
X201551Y255386D01*
X201394Y253811D01*
X201209Y252764D01*
X201000Y252500D01*
G01X202594D02*
Y268248D01*
X203122D01*
X203331Y267461D01*
X203488Y266409D01*
X203618Y264835D01*
X203724Y263000D01*
X203752Y260374D01*
X203724Y257748D01*
X203618Y255913D01*
X203488Y254339D01*
X203331Y253287D01*
X203122Y252500D01*
X202594D01*
G01X204768Y268248D02*
Y256961D01*
X204874Y254598D01*
X205083Y253024D01*
X205346Y252500D01*
X205610Y253024D01*
X205819Y254598D01*
X205925Y256961D01*
Y268248D01*
G01X206996D02*
Y252500D01*
X208043D01*
G01X209035D02*
X209693Y268248D01*
X210350Y252500D01*
G01X210114Y258012D02*
X209272D01*
G01X211866Y268248D02*
Y252500D01*
G01X211264Y268248D02*
X212469D01*
G01X213724D02*
X214354D01*
G01X214039D02*
Y252500D01*
G01X213724D02*
X214354D01*
G01X216213D02*
X216004Y252764D01*
X215819Y253811D01*
X215661Y255386D01*
X215555Y257224D01*
X215504Y259323D01*
Y261425D01*
X215555Y263524D01*
X215661Y265362D01*
X215819Y266937D01*
X216004Y267984D01*
X216213Y268248D01*
X216421Y267984D01*
X216606Y266937D01*
X216764Y265362D01*
X216870Y263524D01*
X216921Y261425D01*
Y259323D01*
X216870Y257224D01*
X216764Y255386D01*
X216606Y253811D01*
X216421Y252764D01*
X216213Y252500D01*
G01X217783D02*
Y268248D01*
X218988Y252500D01*
Y268248D01*
G01X198811Y10000D02*
X197764D01*
Y25748D01*
X198811D01*
G01X198394Y18138D02*
X197764D01*
G01X200461Y10000D02*
Y25748D01*
G01X202240Y17087D02*
X203079D01*
X203000Y18925D01*
X202870Y19972D01*
X202685Y20500D01*
X202504Y20236D01*
X202346Y19449D01*
X202240Y17610D01*
X202189Y16035D01*
Y14461D01*
X202240Y12886D01*
X202370Y11311D01*
X202528Y10264D01*
X202713Y10000D01*
X202898Y10524D01*
X203079Y12098D01*
G01X205228Y19185D02*
X205043Y20236D01*
X204886Y20500D01*
X204677Y19972D01*
X204520Y18925D01*
X204413Y17087D01*
X204386Y15248D01*
X204413Y13413D01*
X204520Y11839D01*
X204677Y10524D01*
X204886Y10000D01*
X205071Y10524D01*
X205228Y11575D01*
G01X206980Y25748D02*
Y10000D01*
G01X206614Y20500D02*
X207346D01*
G01X208787Y10000D02*
Y20500D01*
G01Y18398D02*
X208917Y19449D01*
X209047Y20236D01*
X209232Y20500D01*
X209362Y20236D01*
X209520Y19449D01*
G01X211327Y10000D02*
X211169Y10264D01*
X211012Y11311D01*
X210906Y13150D01*
X210854Y15248D01*
X210906Y17350D01*
X211012Y19185D01*
X211169Y20236D01*
X211327Y20500D01*
X211484Y20236D01*
X211642Y19185D01*
X211748Y17350D01*
X211772Y15248D01*
X211748Y13150D01*
X211642Y11311D01*
X211484Y10264D01*
X211327Y10000D01*
G01X213055D02*
Y20500D01*
G01Y17874D02*
X213157Y19185D01*
X213315Y20236D01*
X213528Y20500D01*
X213709Y20236D01*
X213866Y19185D01*
X213945Y17350D01*
Y10000D01*
G01X215673Y20500D02*
Y10000D01*
G01Y24697D02*
X215622Y24961D01*
Y25484D01*
X215673Y25748D01*
X215724Y25484D01*
Y24961D01*
X215673Y24697D01*
G01X218268Y19185D02*
X218083Y20236D01*
X217925Y20500D01*
X217717Y19972D01*
X217559Y18925D01*
X217453Y17087D01*
X217425Y15248D01*
X217453Y13413D01*
X217559Y11839D01*
X217717Y10524D01*
X217925Y10000D01*
X218110Y10524D01*
X218268Y11575D01*
G01X222772Y24437D02*
X222614Y25224D01*
X222429Y25748D01*
X222220D01*
X221984Y24961D01*
X221799Y23650D01*
X221669Y22075D01*
X221563Y19449D01*
X221535Y17087D01*
X221591Y14724D01*
X221669Y13150D01*
X221827Y11575D01*
X222008Y10524D01*
X222193Y10000D01*
X222378D01*
X222559Y10524D01*
X222717Y11311D01*
X222850Y12362D01*
G01X223709Y10000D02*
X224366Y25748D01*
X225024Y10000D01*
G01X224787Y15512D02*
X223945D01*
G01X225961Y10000D02*
Y25748D01*
X226488D01*
X226697Y24961D01*
X226854Y23909D01*
X226984Y22335D01*
X227091Y20500D01*
X227118Y17874D01*
X227091Y15248D01*
X226984Y13413D01*
X226854Y11839D01*
X226697Y10787D01*
X226488Y10000D01*
X225961D01*
G01X201157Y31417D02*
X201535Y31165D01*
X201980Y31000D01*
X202484D01*
X203055Y31252D01*
X203500Y31665D01*
X203815Y32165D01*
X204071Y33000D01*
X204134Y33752D01*
X204004Y34500D01*
X203815Y35000D01*
X203437Y35500D01*
X202992Y35835D01*
X202551Y36000D01*
X202106D01*
X201661Y35835D01*
X201283Y35583D01*
X200965Y35252D01*
G01X198654Y31835D02*
X198276Y31335D01*
X197831Y31083D01*
X197323Y31000D01*
X196689Y31165D01*
X196248Y31583D01*
X196122Y32083D01*
X196185Y32583D01*
X196437Y33000D01*
X197705Y33835D01*
X198276Y34417D01*
X198654Y35252D01*
X198780Y36000D01*
X196122D01*
G01X222559Y76866D02*
Y104866D01*
X232559D01*
Y76866D01*
X222559D01*
G01X214268Y138071D02*
X242268D01*
Y128071D01*
X214268D01*
Y138071D01*
G01X223925Y160606D02*
X220827D01*
Y161567D01*
X220980Y161874D01*
X221189Y162063D01*
X221602Y162142D01*
X222016Y162063D01*
X222272Y161835D01*
X222429Y161567D01*
Y160606D01*
G01Y161567D02*
X223925Y162142D01*
G01X222634Y163744D02*
X222272Y164012D01*
X222067Y164244D01*
X221965Y164547D01*
X222067Y164819D01*
X222272Y165008D01*
X222583Y165161D01*
X222945Y165201D01*
X223252Y165161D01*
X223563Y165008D01*
X223823Y164780D01*
X223925Y164512D01*
X223823Y164205D01*
X223512Y163937D01*
X223047Y163783D01*
X222531Y163744D01*
X221858Y163823D01*
X221500Y163937D01*
X221138Y164126D01*
X220878Y164398D01*
X220827Y164665D01*
X220929Y164933D01*
X221189Y165122D01*
G01X242425Y149724D02*
X214425D01*
Y159724D01*
X242425D01*
Y149724D01*
G01X212661Y220354D02*
X218661D01*
X221161Y217854D01*
X226161D01*
X228661Y220354D01*
X234661D01*
Y180354D01*
X212661D01*
Y220354D01*
G01X208500Y242500D02*
X236500D01*
Y232500D01*
X208500D01*
Y242500D01*
G01X233441Y95366D02*
Y98465D01*
X234402D01*
X234709Y98311D01*
X234898Y98102D01*
X234976Y97689D01*
X234898Y97276D01*
X234669Y97020D01*
X234402Y96862D01*
X233441D01*
G01X234402D02*
X234976Y95366D01*
G01X236465Y95984D02*
X236693Y95626D01*
X237000Y95417D01*
X237346Y95366D01*
X237654Y95417D01*
X237957Y95677D01*
X238150Y95984D01*
X238189Y96295D01*
X238110Y96657D01*
X237843Y96913D01*
X237575Y97020D01*
X237232D01*
G01X237575D02*
X237807Y97173D01*
X237996Y97433D01*
X238075Y97740D01*
X237996Y98051D01*
X237807Y98311D01*
X237461Y98465D01*
X237114Y98413D01*
X236772Y98205D01*
G01X232768Y127189D02*
X235866D01*
Y126228D01*
X235713Y125921D01*
X235504Y125732D01*
X235091Y125654D01*
X234677Y125732D01*
X234421Y125961D01*
X234264Y126228D01*
Y127189D01*
G01Y126228D02*
X232768Y125654D01*
G01Y122862D02*
X235866D01*
X233646Y124280D01*
Y122366D01*
G01X244319Y214654D02*
Y211071D01*
X244571Y210319D01*
X245079Y209819D01*
X245709Y209654D01*
X246343Y209819D01*
X246850Y210319D01*
X247102Y211071D01*
Y214654D01*
G01X249417Y210402D02*
X249795Y209988D01*
X250240Y209736D01*
X250807Y209654D01*
X251378Y209819D01*
X251823Y210154D01*
X252138Y210736D01*
X252201Y211402D01*
X252075Y212071D01*
X251760Y212488D01*
X251315Y212819D01*
X250874Y212902D01*
X250429Y212819D01*
X249858Y212488D01*
X250047Y214654D01*
X251760D01*
G01X227000Y231618D02*
X230098D01*
Y230657D01*
X229945Y230350D01*
X229736Y230161D01*
X229323Y230083D01*
X228909Y230161D01*
X228654Y230390D01*
X228496Y230657D01*
Y231618D01*
G01Y230657D02*
X227000Y230083D01*
G01Y227827D02*
X227673Y227752D01*
X228240Y227638D01*
X228756Y227484D01*
X229323Y227291D01*
X230098Y226984D01*
Y228520D01*
G01X291008Y81772D02*
X297008D01*
X299508Y79272D01*
X304508D01*
X307008Y81772D01*
X313008D01*
Y41772D01*
X291008D01*
Y81772D01*
G01X315417Y125157D02*
X313835Y130157D01*
X312248Y125157D01*
G01X310000Y130157D02*
Y125157D01*
X308417D01*
X307909Y125409D01*
X307594Y125740D01*
X307469Y126409D01*
X307594Y127075D01*
X307972Y127492D01*
X308417Y127740D01*
X310000D01*
G01X308417D02*
X307469Y130157D01*
G01X304839Y125992D02*
X304461Y125492D01*
X304016Y125240D01*
X303508Y125157D01*
X302874Y125323D01*
X302433Y125740D01*
X302307Y126240D01*
X302370Y126740D01*
X302622Y127157D01*
X303890Y127992D01*
X304461Y128575D01*
X304839Y129409D01*
X304965Y130157D01*
X302307D01*
G01X313031Y156358D02*
Y131358D01*
X293031D01*
Y156358D01*
X313031D01*
G01X292189Y220748D02*
X298189D01*
X300689Y218248D01*
X305689D01*
X308189Y220748D01*
X314189D01*
Y180748D01*
X292189D01*
Y220748D01*
G01X322665Y76071D02*
Y72488D01*
X322917Y71736D01*
X323425Y71236D01*
X324055Y71071D01*
X324689Y71236D01*
X325197Y71736D01*
X325449Y72488D01*
Y76071D01*
G01X327764Y72071D02*
X328142Y71488D01*
X328650Y71154D01*
X329220Y71071D01*
X329724Y71154D01*
X330232Y71571D01*
X330547Y72071D01*
X330610Y72571D01*
X330484Y73154D01*
X330043Y73571D01*
X329598Y73736D01*
X329028D01*
G01X329598D02*
X329980Y73988D01*
X330295Y74406D01*
X330421Y74906D01*
X330295Y75406D01*
X329980Y75819D01*
X329409Y76071D01*
X328839Y75988D01*
X328268Y75654D01*
G01X323846Y215047D02*
Y211465D01*
X324098Y210713D01*
X324606Y210213D01*
X325236Y210047D01*
X325870Y210213D01*
X326378Y210713D01*
X326630Y211465D01*
Y215047D01*
G01X329134Y212130D02*
X329575Y212713D01*
X329957Y213047D01*
X330465Y213213D01*
X330906Y213047D01*
X331224Y212713D01*
X331476Y212213D01*
X331539Y211630D01*
X331476Y211130D01*
X331224Y210630D01*
X330843Y210213D01*
X330402Y210047D01*
X329894Y210213D01*
X329449Y210713D01*
X329197Y211465D01*
X329134Y212295D01*
X329260Y213382D01*
X329449Y213965D01*
X329768Y214547D01*
X330209Y214965D01*
X330654Y215047D01*
X331098Y214882D01*
X331413Y214465D01*
G01X339787Y242500D02*
Y240000D01*
X339256D01*
X339039Y240126D01*
X338882Y240291D01*
X338748Y240543D01*
X338642Y240835D01*
X338614Y241252D01*
X338642Y241665D01*
X338748Y241957D01*
X338882Y242209D01*
X339039Y242374D01*
X339256Y242500D01*
X339787D01*
G01X337004D02*
Y240000D01*
X337323Y240500D01*
G01Y242500D02*
X336685D01*
G01X327500Y251500D02*
X343500D01*
Y243500D01*
X327500D01*
Y251500D01*
G01X332000D02*
Y243500D01*
G01X331500Y251500D02*
Y243500D01*
G01X363398Y115791D02*
X363705Y115984D01*
X363913Y116213D01*
X364016Y116484D01*
X363913Y116787D01*
X363705Y117020D01*
X363398Y117248D01*
X362984Y117327D01*
X360917D01*
G01X364016Y120118D02*
X360917D01*
X363138Y118701D01*
Y120614D01*
G01X379016Y113110D02*
X369016D01*
Y133110D01*
X379016D01*
Y113110D01*
G01X367992Y219197D02*
Y191197D01*
X357992D01*
Y219197D01*
X367992D01*
G01X357110Y200697D02*
Y197598D01*
X356150D01*
X355843Y197752D01*
X355654Y197961D01*
X355575Y198374D01*
X355654Y198787D01*
X355882Y199043D01*
X356150Y199201D01*
X357110D01*
G01X356150D02*
X355575Y200697D01*
G01X353894Y200335D02*
X353626Y200594D01*
X353319Y200697D01*
X353016Y200594D01*
X352744Y200283D01*
X352555Y199819D01*
X352476Y199354D01*
Y198787D01*
X352555Y198323D01*
X352744Y197909D01*
X352976Y197701D01*
X353244Y197598D01*
X353551Y197701D01*
X353780Y197909D01*
X353933Y198217D01*
X354012Y198630D01*
X353933Y198992D01*
X353744Y199354D01*
X353512Y199559D01*
X353244Y199614D01*
X352937Y199508D01*
X352709Y199252D01*
X352476Y198787D01*
M02*
