G04 ================== begin FILE IDENTIFICATION RECORD ==================*
G04 Layout Name:  C:/USERS/USER/DESKTOP/MY_CAD/allegro/MY_CAD_1.brd*
G04 Film Name:    SolderB*
G04 File Format:  Gerber RS274X*
G04 File Origin:  Cadence Allegro 17.2-P019*
G04 Origin Date:  Tue Jul 30 15:55:38 2019*
G04 *
G04 Layer:  VIA CLASS/SOLDERMASK_BOTTOM*
G04 Layer:  PIN/SOLDERMASK_BOTTOM*
G04 Layer:  PACKAGE GEOMETRY/SOLDERMASK_TOP*
G04 Layer:  BOARD GEOMETRY/SOLDERMASK_BOTTOM*
G04 *
G04 Offset:    (0.000 0.000)*
G04 Mirror:    No*
G04 Mode:      Positive*
G04 Rotation:  0*
G04 FullContactRelief:  No*
G04 UndefLineWidth:     0.000*
G04 ================== end FILE IDENTIFICATION RECORD ====================*
%FSLAX25Y25*MOIN*%
%IR0*IPPOS*OFA0.00000B0.00000*MIA0B0*SFA1.00000B1.00000*%
%ADD14C,.08*%
%ADD12C,.044016*%
%ADD17R,.08X.08*%
%ADD11C,.075*%
%ADD10C,.145*%
%ADD13R,.075X.075*%
%ADD16O,.04X.06*%
%ADD15R,.04X.06*%
%LPD*%
G75*
G54D10*
X19685Y19685D03*
Y255906D03*
X374016Y19685D03*
Y255906D03*
G54D11*
X19685Y88110D03*
Y98110D03*
Y108110D03*
Y118110D03*
Y157165D03*
Y167165D03*
Y177165D03*
X62205Y52677D03*
Y62677D03*
Y72677D03*
Y171181D03*
Y181181D03*
Y191181D03*
X92205Y52677D03*
Y62677D03*
Y72677D03*
Y82677D03*
X92126Y122520D03*
X82126Y132520D03*
X92126Y142520D03*
X92205Y171181D03*
Y181181D03*
Y191181D03*
Y201181D03*
X132500Y45000D03*
X142500D03*
X158268Y193858D03*
Y183858D03*
X180000Y40000D03*
Y50000D03*
X208661Y185354D03*
Y195354D03*
Y205354D03*
X238661Y185354D03*
Y195354D03*
Y205354D03*
Y215354D03*
X287008Y46772D03*
Y56772D03*
Y66772D03*
X317008Y46772D03*
Y56772D03*
Y66772D03*
Y76772D03*
X298031Y133858D03*
Y153858D03*
X308031Y143858D03*
X288189Y185748D03*
Y195748D03*
Y205748D03*
X318189Y185748D03*
Y195748D03*
Y205748D03*
Y215748D03*
X374016Y128110D03*
Y118110D03*
G54D12*
X19685D03*
G54D13*
X62205Y82677D03*
Y201181D03*
X208661Y215354D03*
X287008Y76772D03*
X288189Y215748D03*
G54D14*
X137500Y145000D03*
Y192500D03*
Y232500D03*
X140000Y72500D03*
Y92500D03*
X180000Y72500D03*
Y92500D03*
X177500Y145000D03*
X227559Y70866D03*
Y110866D03*
X208268Y133071D03*
X208425Y154724D03*
X202500Y237500D03*
X248268Y133071D03*
X248425Y154724D03*
X242500Y237500D03*
X362992Y185197D03*
Y225197D03*
X353500Y247500D03*
G54D15*
X170000Y125000D03*
G54D16*
X175000D03*
X180000D03*
G54D17*
X317500Y247500D03*
M02*
