G04 ================== begin FILE IDENTIFICATION RECORD ==================*
G04 Layout Name:  C:/USERS/USER/DESKTOP/MY_CAD/allegro/MY_CAD_1.brd*
G04 Film Name:    TOP*
G04 File Format:  Gerber RS274X*
G04 File Origin:  Cadence Allegro 17.2-P019*
G04 Origin Date:  Tue Jul 30 15:55:38 2019*
G04 *
G04 Layer:  ETCH/TOP*
G04 Layer:  PIN/TOP*
G04 Layer:  VIA CLASS/TOP*
G04 *
G04 Offset:    (0.000 0.000)*
G04 Mirror:    No*
G04 Mode:      Positive*
G04 Rotation:  0*
G04 FullContactRelief:  No*
G04 UndefLineWidth:     0.000*
G04 ================== end FILE IDENTIFICATION RECORD ====================*
%FSLAX25Y25*MOIN*%
%IR0*IPPOS*OFA0.00000B0.00000*MIA0B0*SFA1.00000B1.00000*%
%ADD11C,.06*%
%ADD14C,.065*%
%ADD13R,.06X.06*%
%ADD18C,.055*%
%ADD17R,.055X.055*%
%ADD16O,.04X.06*%
%ADD15R,.04X.06*%
%ADD12C,.024016*%
%ADD10C,.025*%
%ADD19C,.03937*%
%ADD20C,.019685*%
G75*
%LPD*%
G75*
G54D10*
X19685Y19685D03*
Y255906D03*
X374016Y19685D03*
Y255906D03*
G54D20*
G01X19685Y167165D02*
Y172185D01*
X20181Y172681D01*
X21543D01*
X24528Y175665D01*
X66689D01*
X92205Y201181D01*
G01X19685Y177165D02*
X21173D01*
X25189Y181181D01*
X62205D01*
G01X132500Y45000D02*
X99882D01*
X92205Y52677D01*
G01Y62677D02*
Y72677D01*
G01D02*
X99528Y80000D01*
X178031D01*
X180000Y78031D01*
Y72500D01*
G01X170000Y125000D02*
Y126000D01*
X166945Y129055D01*
X165945D01*
X160000Y135000D01*
X94094D01*
X92126Y136969D01*
Y142520D01*
G01X158268Y183858D02*
X99370D01*
X96693Y181181D01*
X92205D01*
G01X137500Y145000D02*
Y169213D01*
X135531Y171181D01*
X92205D01*
G01X137500Y232500D02*
X197500D01*
X202500Y237500D01*
G01X180000Y72500D02*
X221185D01*
X222819Y70866D01*
X227559D01*
G01X175000Y125000D02*
X180000D01*
G01X178846Y149736D02*
X179461D01*
G01X177500Y145000D02*
X198701D01*
X208425Y154724D01*
G01X298031Y133858D02*
X253795D01*
X253008Y133071D01*
X248268D01*
G01X248425Y154724D02*
X292677D01*
X293543Y153858D01*
X298031D01*
G01X288189Y205748D02*
X283701D01*
X282146Y204193D01*
X247500D01*
X238661Y195354D01*
G54D11*
X19685Y88110D03*
Y98110D03*
Y108110D03*
Y118110D03*
Y157165D03*
Y167165D03*
Y177165D03*
X62205Y52677D03*
Y62677D03*
Y72677D03*
Y171181D03*
Y181181D03*
Y191181D03*
X92205Y52677D03*
Y62677D03*
Y72677D03*
Y82677D03*
X92126Y122520D03*
X82126Y132520D03*
X92126Y142520D03*
X92205Y171181D03*
Y181181D03*
Y191181D03*
Y201181D03*
X132500Y45000D03*
X142500D03*
X158268Y193858D03*
Y183858D03*
X180000Y40000D03*
Y50000D03*
X208661Y185354D03*
Y195354D03*
Y205354D03*
X238661Y185354D03*
Y195354D03*
Y205354D03*
Y215354D03*
X287008Y46772D03*
Y56772D03*
Y66772D03*
X317008Y46772D03*
Y56772D03*
Y66772D03*
Y76772D03*
X298031Y133858D03*
Y153858D03*
X308031Y143858D03*
X288189Y185748D03*
Y195748D03*
Y205748D03*
X318189Y185748D03*
Y195748D03*
Y205748D03*
Y215748D03*
X374016Y128110D03*
Y118110D03*
G54D12*
X19685D03*
G54D13*
X62205Y82677D03*
Y201181D03*
X208661Y215354D03*
X287008Y76772D03*
X288189Y215748D03*
G54D14*
X137500Y145000D03*
Y192500D03*
Y232500D03*
X140000Y72500D03*
Y92500D03*
X180000Y72500D03*
Y92500D03*
X177500Y145000D03*
X227559Y70866D03*
Y110866D03*
X208268Y133071D03*
X208425Y154724D03*
X202500Y237500D03*
X248268Y133071D03*
X248425Y154724D03*
X242500Y237500D03*
X362992Y185197D03*
Y225197D03*
G54D15*
X170000Y125000D03*
G54D16*
X175000D03*
X180000D03*
G54D17*
X317500Y247500D03*
G54D18*
X353500D03*
G54D19*
G01X287008Y46772D02*
X275236Y35000D01*
X182736D01*
X182268Y34531D01*
X177732D01*
X177264Y35000D01*
X42500D01*
X42406Y35094D01*
X41130D01*
X32500Y43724D01*
Y75295D01*
X19685Y88110D01*
G01Y98110D02*
X36937Y80858D01*
Y45563D01*
X42969Y39531D01*
X147031D01*
X147500Y40000D01*
G01X19685Y98110D02*
Y97815D01*
G01Y98110D02*
X46772D01*
X62205Y82677D01*
G01X19685Y157165D02*
X58189D01*
X92205Y191181D01*
G01X62205Y201181D02*
X81846Y220823D01*
X254130D01*
G01X92205Y82677D02*
X102028Y92500D01*
X140000D01*
G01X137500Y192500D02*
X133449Y196551D01*
X97575D01*
X92205Y191181D01*
G01X180000Y40000D02*
X147500D01*
G01D02*
X142500Y45000D01*
G01X137500Y192500D02*
X142728Y197728D01*
X154398D01*
X158268Y193858D01*
G01D02*
X172126Y180000D01*
X206280D01*
X206394Y179886D01*
X240929D01*
X241043Y180000D01*
X272441D01*
X288189Y195748D01*
G01X287008Y56772D02*
X270236Y40000D01*
X180000D01*
G01X238661Y205354D02*
X254130Y220823D01*
G01D02*
X283772D01*
X284165Y221217D01*
X292213D01*
X293429Y220000D01*
X303937D01*
X318189Y205748D01*
G01X362992Y185197D02*
X357795Y180000D01*
X303937D01*
X288189Y195748D01*
M02*
